<?xml version="1.0" encoding="UTF-8"?>
<svg xmlns="http://www.w3.org/2000/svg" viewBox="0 0 24 24">
	<!-- Section container -->
	<path d="M0,3v18h24V3H0ZM23,20H1V4h22v16Z"/>
	<!-- Left column: ThemeHeading -->
	<rect x="2" y="5" width="4" height="1"/>
	<rect x="2" y="7" width="8" height="2"/>
	<rect x="2" y="10" width="9" height="1"/>
	<rect x="2" y="12" width="7" height="1"/>
	<!-- Right column: form fields (hollow rects) -->
	<path d="M13,5v3h9V5h-9ZM21,7h-7V6h7v1Z"/>
	<path d="M13,9v3h9V9h-9ZM21,11h-7v-1h7v1Z"/>
	<path d="M13,13v4h9v-4h-9ZM21,16h-7v-2h7v2Z"/>
	<!-- Submit button -->
	<rect x="13" y="18" width="5" height="1"/>
</svg>
