<svg xmlns="http://www.w3.org/2000/svg" id="Layer_1" data-name="Layer 1" viewBox="0 0 25 24">
<path d="m17.02,11.15c-.15-2.84-1.71-4.47-4.32-4.49-1.58,0-2.88.65-3.69,1.88l1.43.98c.6-.91,1.56-1.1,2.25-1.09.86,0,1.5.25,1.92.74.3.36.51.84.61,1.46-.76-.13-1.58-.17-2.46-.12-2.48.14-4.07,1.58-3.97,3.6.05,1.02.56,1.9,1.43,2.47.73.48,1.67.72,2.66.66,1.3-.07,2.31-.56,3.03-1.47.54-.69.88-1.58,1.03-2.69.62.38,1.07.86,1.32,1.45.43,1,.46,2.65-.89,3.99-1.18,1.17-2.6,1.68-4.74,1.7-2.37-.02-4.17-.78-5.34-2.27-1.09-1.39-1.66-3.39-1.68-5.96.02-2.57.58-4.57,1.68-5.96,1.16-1.49,2.96-2.25,5.34-2.27,2.39.02,4.22.78,5.43,2.27.59.73,1.04,1.65,1.33,2.72l1.68-.45c-.36-1.32-.92-2.45-1.68-3.4-1.55-1.92-3.83-2.89-6.76-2.91-2.92.02-5.17,1-6.68,2.92-1.34,1.71-2.03,4.09-2.06,7.07.03,2.98.72,5.35,2.06,7.05,1.51,1.92,3.77,2.9,6.69,2.92,2.6-.02,4.43-.7,5.94-2.2,1.97-1.97,1.92-4.44,1.26-5.95-.5-1.16-1.5-2.09-2.84-2.68h0Zm-4.22,4.33c-1.08.06-2.21-.43-2.27-1.47-.04-.77.56-1.64,2.34-1.74.81-.05,1.62,0,2.41.16-.21,2.57-1.41,2.99-2.48,3.04h0Z" fill="currentColor"></path>
</svg> 