<?xml version="1.0" encoding="UTF-8"?>
<svg xmlns="http://www.w3.org/2000/svg" viewBox="0 0 24 24">
	<!-- Container -->
	<path d="M0,1v22h24V1H0ZM23,22H1V2h22v20Z"/>
	<!-- Header -->
	<rect x="2" y="3" width="4" height="1"/>
	<rect x="2" y="5" width="9" height="2"/>
	<!-- Filter bar -->
	<rect x="2" y="9" width="20" height="1"/>
	<!-- Policy cards (outlined with text) -->
	<path d="M2,12v9h9v-9H2ZM10,20H3v-7h7v7Z"/>
	<rect x="4" y="14" width="5" height="1"/>
	<rect x="4" y="16" width="3" height="1"/>
	<path d="M13,12v9h9v-9h-9ZM21,20h-7v-7h7v7Z"/>
	<rect x="15" y="14" width="5" height="1"/>
	<rect x="15" y="16" width="3" height="1"/>
</svg>
