<?xml version="1.0" encoding="UTF-8"?>
<svg xmlns="http://www.w3.org/2000/svg" viewBox="0 0 24 24">
	<!-- Container -->
	<path d="M0,3v18h24V3H0ZM23,20H1V4h22v16Z"/>
	<!-- Left column: heading + media -->
	<rect x="2" y="5" width="4" height="1"/>
	<rect x="2" y="7" width="7" height="2"/>
	<rect x="2" y="10" width="9" height="9"/>
	<!-- Right column: accordion items -->
	<path d="M13,5v3h9V5h-9ZM21,7h-7V6h7v1Z"/>
	<path d="M13,9v3h9V9h-9ZM21,11h-7v-1h7v1Z"/>
	<path d="M13,13v3h9v-3h-9ZM21,15h-7v-1h7v1Z"/>
</svg>
