<?xml version="1.0" encoding="UTF-8"?>
<svg xmlns="http://www.w3.org/2000/svg" viewBox="0 0 24 24">
	<!-- Left column: text content -->
	<rect x="2" y="5" width="4" height="1"/>
	<rect x="2" y="7" width="7" height="2"/>
	<rect x="2" y="10" width="8" height="1"/>
	<rect x="2" y="12" width="6" height="1"/>
	<rect x="2" y="15" width="3" height="1"/>
	<rect x="6" y="15" width="3" height="1"/>

	<!-- Right column: accordion items -->
	<path d="M12,5v3h10V5h-10ZM21,7h-8v-1h8v1Z"/>
	<path d="M12,9v3h10V9h-10ZM21,11h-8v-1h8v1Z"/>
	<path d="M12,13v3h10v-3h-10ZM21,15h-8v-1h8v1Z"/>

	<!-- Container -->
	<path d="M0,3v18h24V3H0ZM23,20H1V4h22v16Z"/>
</svg>
