<svg width="226" height="58" viewBox="0 0 226 58" fill="none" xmlns="http://www.w3.org/2000/svg">
<g clip-path="url(#clip0_1564_15340)">
<path d="M29.0629 2.55116C28.8077 2.68627 28.5525 2.83638 28.2973 2.9865C27.5617 2.29596 26.7361 1.87564 26.0155 2.01074C25.9404 2.01074 25.8804 2.04077 25.8204 2.05578C25.5501 2.10081 25.2949 2.04077 25.0998 1.84561C24.9046 1.65046 24.7996 1.35023 24.7996 1.03499C24.7996 0.719741 24.9046 0.419508 25.0998 0.224356C25.2949 0.0292046 25.5501 -0.0308421 25.8204 0.0141929C25.9555 0.0292045 26.0906 0.0592279 26.2257 0.0892512C27.7118 0.524589 28.5525 1.48534 29.0629 2.55116Z" fill="currentColor"/>
<path d="M42.0634 1.03499C42.0634 1.35023 41.9583 1.65046 41.7631 1.84562C41.568 2.04077 41.3128 2.10081 41.0426 2.05578C40.9825 2.04077 40.9075 2.02575 40.8474 2.01074C40.1118 1.87564 39.2562 2.32599 38.5056 3.04655C38.2654 2.89643 38.0252 2.74631 37.77 2.61121C38.2804 1.51536 39.1211 0.539601 40.6372 0.0892512C40.7724 0.0592279 40.9075 0.0292046 41.0426 0.0141929C41.3128 -0.0308421 41.568 0.0292046 41.7631 0.224356C41.9583 0.419508 42.0634 0.719741 42.0634 1.03499Z" fill="currentColor"/>
<path d="M41.432 9.18635L33.4608 17.1575L25.4146 9.11129C25.94 6.84453 27.4111 4.93805 29.3926 3.82718C29.4677 3.78215 29.5428 3.73711 29.6178 3.70709C30.7587 3.10662 32.0497 2.77637 33.4158 2.77637C34.7818 2.77637 36.0728 3.10662 37.2137 3.70709C37.2888 3.75212 37.3638 3.78215 37.4389 3.82718C39.4354 4.95306 40.9216 6.88956 41.432 9.18635Z" fill="currentColor"/>
<path d="M66.9368 12.1587C66.9368 15.191 64.4749 17.653 61.4426 17.653H45.23C45.0949 17.653 44.9598 17.653 44.8397 17.653H35.4424L42.1976 10.8977C44.9297 8.16559 48.5776 6.64941 52.4506 6.64941H61.4426C64.4749 6.64941 66.9368 9.11133 66.9368 12.1587Z" fill="currentColor"/>
<path d="M31.4945 17.653H22.1572C22.0221 17.653 21.887 17.653 21.7669 17.653H5.49427C2.46191 17.653 0 15.191 0 12.1587C0 9.12634 2.46191 6.64941 5.49427 6.64941H14.4862C18.3593 6.64941 21.9921 8.15058 24.7392 10.8977L25.715 11.8735L26.7958 12.9543L31.4945 17.653Z" fill="currentColor"/>
<path d="M31.4939 19.7703L30.8484 20.4158C30.0377 21.1213 29.3022 21.8719 28.6116 22.6525L12.384 38.8501C10.1473 41.0718 6.51448 41.0718 4.27774 38.8501C3.1969 37.7692 2.59644 36.3431 2.59644 34.8119C2.59644 33.2807 3.1969 31.8546 4.27774 30.7738L10.9129 24.1537C13.675 21.3915 17.3229 19.8303 21.2259 19.7402H31.3588C31.3588 19.7402 31.4488 19.7703 31.4939 19.7703Z" fill="currentColor"/>
<path d="M64.3705 34.7963C64.3705 36.3275 63.77 37.7536 62.6891 38.8344C60.4524 41.0562 56.8196 41.0562 54.5829 38.8344L35.428 19.7246H45.741C49.644 19.8147 53.2768 21.3759 56.054 24.138L62.6891 30.7582C63.77 31.839 64.3705 33.2651 64.3705 34.7963Z" fill="currentColor"/>
<path d="M33.4363 20.707L40.4421 27.7128C46.8004 34.0711 46.811 44.3994 40.4421 50.7683L33.4363 57.7741L26.4305 50.7683C20.0722 44.41 20.0616 34.0817 26.4305 27.7128L33.4363 20.707Z" fill="url(#paint0_linear_1564_15340)"/>
</g>
<path d="M201.757 57.745V0.743164H224.555V11.7508H213.344V22.8603H224.098V33.5831H213.344V46.6356H225.298V57.745H201.747H201.757Z" fill="currentColor"/>
<path d="M179.341 57.745V11.6898H172.576V0.743164H197.521V11.6898H190.756V57.745H179.351H179.341Z" fill="currentColor"/>
<path d="M157.832 57.745V0.743164H168.84V57.7552H157.832V57.745Z" fill="currentColor"/>
<path d="M125.307 57.745V0.743164H137.037L142.286 28.0487V0.743164H153.294V57.7552H142.154L136.457 29.2492V57.7552H125.317L125.307 57.745Z" fill="currentColor"/>
<path d="M76.4912 57.7421V0.740234H87.4989V57.7523H76.4912V57.7421Z" fill="currentColor"/>
<path d="M106.649 0C110.494 0 113.445 0.773183 115.489 2.32972C117.544 3.86591 118.959 6.10407 119.732 9.06455C120.505 12.025 120.902 15.6264 120.902 19.8789H109.762V14.8227C109.762 13.5917 109.589 12.5642 109.243 11.7503C108.917 10.9059 108.226 10.4888 107.167 10.4888C105.855 10.4888 104.98 10.9365 104.543 11.8216C104.136 12.7066 103.932 13.6833 103.932 14.7413V43.0134C103.932 44.0714 104.136 45.0481 104.543 45.9332C104.97 46.8182 105.845 47.2659 107.167 47.2659C108.226 47.2659 108.917 46.8488 109.243 46.0044C109.589 45.1803 109.762 44.163 109.762 42.932L109.894 37.9877V34.193H106.852V24.3451H120.78L120.444 37.9877H120.495C120.495 42.2402 120.281 45.9433 119.793 48.7919C119.02 51.7524 117.544 53.899 115.489 55.4352C113.434 56.9917 110.494 57.7649 106.649 57.7649C97.3196 57.7649 92.6602 52.4442 92.6602 41.7926V15.9723C92.6602 5.32072 97.3196 0 106.649 0Z" fill="currentColor"/>
<defs>
<linearGradient id="paint0_linear_1564_15340" x1="33.7586" y1="51.172" x2="33.4363" y2="34.0394" gradientUnits="userSpaceOnUse">
<stop offset="0.05" stop-color="#D4FF45"/>
<stop offset="1" stop-color="#47CBF2"/>
</linearGradient>
<clipPath id="clip0_1564_15340">
<rect width="66.937" height="57.7648" fill="currentColor"/>
</clipPath>
</defs>
</svg>
