<svg viewBox="0 0 21 16" fill="none" xmlns="http://www.w3.org/2000/svg">
<path fill-rule="evenodd" clip-rule="evenodd" d="M20.2782 7.3211C20.4431 7.48613 20.5356 7.70982 20.5356 7.94306C20.5356 8.17629 20.4431 8.39998 20.2782 8.56501L13.2373 15.606C13.1567 15.6925 13.0595 15.7618 12.9516 15.8099C12.8436 15.858 12.7271 15.8839 12.6089 15.886C12.4907 15.8881 12.3733 15.8663 12.2637 15.8221C12.1541 15.7778 12.0546 15.7119 11.971 15.6283C11.8874 15.5448 11.8216 15.4452 11.7773 15.3356C11.733 15.226 11.7113 15.1086 11.7134 14.9905C11.7155 14.8723 11.7413 14.7557 11.7894 14.6478C11.8375 14.5398 11.9069 14.4427 11.9934 14.3621L17.5323 8.82318L0.880352 8.82318C0.64693 8.82318 0.423067 8.73045 0.25801 8.56539C0.0929562 8.40034 0.000230432 8.17648 0.000230442 7.94305C0.000230452 7.70963 0.0929562 7.48577 0.258011 7.32071C0.423067 7.15566 0.64693 7.06293 0.880352 7.06293L17.5323 7.06293L11.9934 1.52403C11.9069 1.44345 11.8375 1.34629 11.7894 1.23833C11.7413 1.13037 11.7155 1.01382 11.7134 0.895648C11.7113 0.777474 11.733 0.66009 11.7773 0.550499C11.8216 0.440908 11.8874 0.341356 11.971 0.257781C12.0546 0.174206 12.1542 0.108321 12.2637 0.0640554C12.3733 0.0197899 12.4907 -0.00194843 12.6089 0.000136627C12.7271 0.00222168 12.8436 0.0280873 12.9516 0.0761913C13.0595 0.124295 13.1567 0.193651 13.2373 0.280123L20.2782 7.3211Z" fill="currentColor"/>
</svg>
