<?xml version="1.0" encoding="UTF-8"?>
<svg xmlns="http://www.w3.org/2000/svg" viewBox="0 0 24 24">
	<!-- Header area -->
	<rect x="2" y="3" width="4" height="1"/>
	<rect x="2" y="5" width="9" height="2"/>

	<!-- Progress bar -->
	<rect x="2" y="9" width="14" height="1"/>

	<!-- Nav arrows -->
	<rect x="19" y="9" width="2" height="1"/>
	<rect x="21" y="9" width="1" height="1"/>

	<!-- Card 1: avatar circle + name + title -->
	<rect x="4" y="12" width="2" height="2"/>
	<rect x="2" y="15" width="6" height="1"/>
	<rect x="3" y="17" width="4" height="1"/>

	<!-- Card 2: avatar circle + name + title -->
	<rect x="11" y="12" width="2" height="2"/>
	<rect x="9" y="15" width="6" height="1"/>
	<rect x="10" y="17" width="4" height="1"/>

	<!-- Card 3: avatar circle + name + title -->
	<rect x="18" y="12" width="2" height="2"/>
	<rect x="16" y="15" width="6" height="1"/>
	<rect x="17" y="17" width="4" height="1"/>

	<!-- Container -->
	<path d="M0,1v21h24V1H0ZM23,21H1V2h22v19Z"/>
</svg>
