<svg class="play-circle" viewBox="37 24 54 54" fill="none" xmlns="http://www.w3.org/2000/svg">
<path fill-rule="evenodd" clip-rule="evenodd" d="M37.334 51.1999C37.334 36.4723 49.2731 24.5332 64.0007 24.5332C71.0731 24.5332 77.8559 27.3427 82.8569 32.3437C87.8578 37.3447 90.6673 44.1275 90.6673 51.1999C90.6673 65.9275 78.7283 77.8666 64.0007 77.8666C49.2731 77.8666 37.334 65.9275 37.334 51.1999ZM59.1208 62.6133L74.6674 52.9066C75.2492 52.534 75.6011 51.8908 75.6011 51.1999C75.6011 50.5091 75.2492 49.8658 74.6674 49.4933L59.0674 39.7866C58.453 39.3992 57.6768 39.3754 57.0398 39.7243C56.4028 40.0733 56.005 40.7402 56.0008 41.4666V60.9333C55.9922 61.6773 56.3973 62.3646 57.0524 62.7173C57.7075 63.0701 58.5043 63.03 59.1208 62.6133Z" fill="currentColor"/>
</svg>
