<svg viewBox="0 0 25 24" fill="none" xmlns="http://www.w3.org/2000/svg">
<path fill-rule="evenodd" clip-rule="evenodd" d="M16.25 3H8.25C5.48858 3 3.25 5.23858 3.25 8V16C3.25 18.7614 5.48858 21 8.25 21H16.25C19.0114 21 21.25 18.7614 21.25 16V8C21.25 5.23858 19.0114 3 16.25 3ZM19.5 16C19.4945 17.7926 18.0426 19.2445 16.25 19.25H8.25C6.45735 19.2445 5.00549 17.7926 5 16V8C5.00549 6.20735 6.45735 4.75549 8.25 4.75H16.25C18.0426 4.75549 19.4945 6.20735 19.5 8V16ZM17 8.25C17.5523 8.25 18 7.80228 18 7.25C18 6.69772 17.5523 6.25 17 6.25C16.4477 6.25 16 6.69772 16 7.25C16 7.80228 16.4477 8.25 17 8.25ZM12.25 7.5C9.76472 7.5 7.75 9.51472 7.75 12C7.75 14.4853 9.76472 16.5 12.25 16.5C14.7353 16.5 16.75 14.4853 16.75 12C16.7527 10.8057 16.2794 9.65957 15.4349 8.81508C14.5904 7.97059 13.4443 7.49734 12.25 7.5ZM9.5 12C9.5 13.5188 10.7312 14.75 12.25 14.75C13.7688 14.75 15 13.5188 15 12C15 10.4812 13.7688 9.25 12.25 9.25C10.7312 9.25 9.5 10.4812 9.5 12Z" fill="currentColor"/>
</svg>
