<svg viewBox="0 0 25 24" fill="none" xmlns="http://www.w3.org/2000/svg">
<path fill-rule="evenodd" clip-rule="evenodd" d="M5.25 3H19.25C20.3546 3 21.25 3.89543 21.25 5V19C21.25 20.1046 20.3546 21 19.25 21H5.25C4.14543 21 3.25 20.1046 3.25 19V5C3.25 3.89543 4.14543 3 5.25 3ZM8.25 18C8.52614 18 8.75 17.7761 8.75 17.5V10.5C8.75 10.2239 8.52614 10 8.25 10H6.75C6.47386 10 6.25 10.2239 6.25 10.5V17.5C6.25 17.7761 6.47386 18 6.75 18H8.25ZM7.5 9C6.67157 9 6 8.32843 6 7.5C6 6.67157 6.67157 6 7.5 6C8.32843 6 9 6.67157 9 7.5C9 8.32843 8.32843 9 7.5 9ZM17.75 18C18.0261 18 18.25 17.7761 18.25 17.5V12.9C18.2825 11.3108 17.1076 9.95452 15.53 9.76C14.427 9.65925 13.3583 10.1744 12.75 11.1V10.5C12.75 10.2239 12.5261 10 12.25 10H10.75C10.4739 10 10.25 10.2239 10.25 10.5V17.5C10.25 17.7761 10.4739 18 10.75 18H12.25C12.5261 18 12.75 17.7761 12.75 17.5V13.75C12.75 12.9216 13.4216 12.25 14.25 12.25C15.0784 12.25 15.75 12.9216 15.75 13.75V17.5C15.75 17.7761 15.9739 18 16.25 18H17.75Z" fill="currentColor"/>
</svg>
