<svg viewBox="0 0 25 24" fill="none" xmlns="http://www.w3.org/2000/svg">
<path d="M16.75 6H13.75C13.1977 6 12.75 6.44772 12.75 7V10H16.75C16.8637 9.99748 16.9716 10.0504 17.0392 10.1419C17.1068 10.2334 17.1258 10.352 17.09 10.46L16.35 12.66C16.2818 12.8619 16.0931 12.9984 15.88 13H12.75V20.5C12.75 20.7761 12.5261 21 12.25 21H9.75C9.47386 21 9.25 20.7761 9.25 20.5V13H7.75C7.47386 13 7.25 12.7761 7.25 12.5V10.5C7.25 10.2239 7.47386 10 7.75 10H9.25V7C9.25 4.79086 11.0409 3 13.25 3H16.75C17.0261 3 17.25 3.22386 17.25 3.5V5.5C17.25 5.77614 17.0261 6 16.75 6Z" fill="currentColor"/>
</svg>
