<svg viewBox="0 0 24 25" fill="none" xmlns="http://www.w3.org/2000/svg">
<path d="M14.1939 11.1402V11.1431C14.1366 11.1066 14.0192 11.0887 13.8717 11.0887V14.8041C14.0794 14.8041 14.2089 14.7561 14.2575 14.6745C14.3056 14.5964 14.3299 14.3644 14.3299 13.9936V11.7818C14.3299 11.5284 14.327 11.3658 14.3056 11.2964C14.2876 11.2212 14.2541 11.1697 14.1968 11.1396L14.1939 11.1402ZM20.4463 3.74277H4.40651C4.08404 3.76144 3.77938 3.89677 3.54934 4.12351C3.3193 4.35025 3.17958 4.65293 3.15625 4.97509V21.0057C3.20138 21.6808 3.70472 22.1957 4.35559 22.253C4.36755 22.2553 4.3797 22.2563 4.39204 22.2559H20.4712C20.7989 22.223 21.1027 22.07 21.3242 21.8263C21.5457 21.5826 21.6691 21.2655 21.6706 20.9362V5.06187C21.6689 4.72864 21.5422 4.40816 21.3157 4.1638C21.0891 3.91944 20.7791 3.76899 20.4469 3.74219L20.4463 3.74277ZM6.85379 15.7958H5.38311V10.1155H6.85379V15.7958ZM11.8976 15.7958H10.6167V11.96L10.0983 15.7929H9.18247L8.64326 12.0444L8.63747 15.7929H7.35366V10.1155H9.25479C9.32132 10.5165 9.3786 10.9232 9.4324 11.3299L9.64011 12.7705L9.98377 10.1155H11.897L11.8976 15.7958ZM15.7369 14.1145C15.7369 14.6178 15.7039 14.958 15.6553 15.1328C15.6184 15.2903 15.5306 15.4312 15.4054 15.5337C15.2792 15.6391 15.1276 15.7097 14.9657 15.7385C14.7939 15.7715 14.526 15.7958 14.1794 15.7958L14.1765 15.7929H12.3987V10.1155H13.4985C14.2037 10.1155 14.6163 10.152 14.8633 10.2122C15.1132 10.2816 15.3065 10.3869 15.439 10.5379C15.5657 10.6767 15.6501 10.848 15.6802 11.0349C15.7188 11.2161 15.7379 11.5768 15.7375 12.1168L15.7369 14.1145ZM19.5519 14.479C19.5519 14.8255 19.5154 15.0697 19.4825 15.2444C19.4345 15.4163 19.332 15.5545 19.1689 15.6812C18.9942 15.8108 18.798 15.8681 18.566 15.8681C18.3971 15.8681 18.1801 15.8201 18.0419 15.7628C17.8879 15.6808 17.7524 15.5679 17.6438 15.4313L17.5565 15.7958H16.2304V10.1155L16.2154 10.1126H17.6045V11.9629C17.7187 11.8275 17.8492 11.7251 17.9962 11.6557C18.1665 11.5904 18.3472 11.5567 18.5296 11.5561C18.7043 11.5561 18.8761 11.5833 19.0387 11.6464C19.1712 11.7008 19.2858 11.7881 19.376 11.8998C19.4454 11.9964 19.4906 12.1075 19.5149 12.2255C19.5357 12.3308 19.5478 12.557 19.5478 12.8943V14.4796L19.5519 14.479ZM17.8735 12.3852C17.7833 12.3852 17.726 12.4182 17.7017 12.4784C17.6774 12.5414 17.6566 12.7011 17.6566 12.9603V14.4611C17.6566 14.711 17.6774 14.8741 17.7017 14.943C17.7171 14.9757 17.742 15.0029 17.7732 15.0212C17.8044 15.0395 17.8404 15.0479 17.8764 15.0454C17.9667 15.0454 18.0841 15.009 18.1084 14.9366C18.13 14.8618 18.141 14.689 18.1414 14.4182L18.1657 14.4154V12.9568C18.1657 12.7248 18.1535 12.5651 18.1206 12.4928C18.0841 12.4147 17.9701 12.3841 17.8764 12.3841L17.8735 12.3852Z" fill="currentColor"/>
</svg>
