<svg viewBox="0 0 25 24" fill="none" xmlns="http://www.w3.org/2000/svg">
<path d="M16.8502 5.82C16.1666 5.03962 15.7899 4.03743 15.7902 3H12.7002V15.4C12.6763 16.071 12.393 16.7066 11.9099 17.1729C11.4268 17.6393 10.7816 17.8999 10.1102 17.9C8.69016 17.9 7.51016 16.74 7.51016 15.3C7.51016 13.58 9.17016 12.29 10.8802 12.82V9.66C7.43016 9.2 4.41016 11.88 4.41016 15.3C4.41016 18.63 7.17016 21 10.1002 21C13.2402 21 15.7902 18.45 15.7902 15.3V9.01C17.0432 9.90985 18.5475 10.3926 20.0902 10.39V7.3C20.0902 7.3 18.2102 7.39 16.8502 5.82Z" fill="currentColor"/>
</svg>
