<?xml version="1.0" encoding="UTF-8"?>
<svg xmlns="http://www.w3.org/2000/svg" viewBox="0 0 25 24">
  <path d="M7.44,5.19c2.05,1.54,4.25,4.66,5.06,6.33.81-1.67,3.01-4.79,5.06-6.33,1.48-1.11,3.87-1.97,3.87.76,0,.55-.31,4.59-.5,5.24-.64,2.28-2.96,2.86-5.03,2.51,3.62.62,4.53,2.65,2.55,4.69-3.77,3.87-5.42-.97-5.84-2.21-.08-.23-.11-.33-.11-.24,0-.09-.04.02-.11.24-.42,1.24-2.07,6.08-5.84,2.21-1.99-2.04-1.07-4.08,2.55-4.69-2.07.35-4.39-.23-5.03-2.51-.18-.66-.5-4.7-.5-5.24,0-2.73,2.4-1.87,3.87-.76h0Z" fill="currentColor"/>
</svg>