<?xml version="1.0" encoding="UTF-8"?>
<svg xmlns="http://www.w3.org/2000/svg" viewBox="0 0 24 24">
	<!-- Eyebrow at top -->
	<rect x="2" y="4" width="5" height="1"/>

	<!-- Left column: heading + description + button -->
	<rect x="2" y="7" width="8" height="2"/>
	<rect x="2" y="10" width="9" height="1"/>
	<rect x="2" y="12" width="7" height="1"/>
	<rect x="2" y="15" width="3" height="1"/>
	<rect x="6" y="15" width="3" height="1"/>

	<!-- Right column: heading + text lines -->
	<rect x="13" y="7" width="7" height="2"/>
	<rect x="13" y="10" width="9" height="1"/>
	<rect x="13" y="12" width="8" height="1"/>
	<rect x="13" y="14" width="9" height="1"/>
	<rect x="13" y="16" width="6" height="1"/>
	<rect x="13" y="18" width="3" height="1"/>
	<rect x="17" y="18" width="3" height="1"/>

	<!-- Container outline -->
	<path d="M0,2v20h24V2H0ZM23,21H1V3h22v18Z"/>
</svg>
