<?xml version="1.0" encoding="UTF-8"?>
<svg xmlns="http://www.w3.org/2000/svg" viewBox="0 0 24 24">
	<!-- Section container -->
	<path d="M0,3v18h24V3H0ZM23,20H1V4h22v16Z"/>

	<!-- Left column: text content -->
	<rect x="2" y="6" width="4" height="1"/>
	<rect x="2" y="8" width="8" height="2"/>
	<rect x="2" y="11" width="9" height="1"/>
	<rect x="2" y="13" width="7" height="1"/>
	<rect x="2" y="16" width="3" height="1"/>

	<!-- Right column: link cards stacked -->
	<path d="M13,6v3h9V6h-9ZM21,8h-7v-1h7v1Z"/>
	<path d="M13,10v3h9v-3h-9ZM21,12h-7v-1h7v1Z"/>
	<path d="M13,14v3h9v-3h-9ZM21,16h-7v-1h7v1Z"/>
</svg>
